<?xml version="1.0" standalone="yes"?>
<svg xmlns="http://www.w3.org/2000/svg" width="287" height="226">
<path style="fill:#fefefe; stroke:none;" d="M0 0L0 2261L585 2261L585 13L2197 13L2197 2061L1609 2061L1609 2261L2875 2261L2875 0L0 0z"/>
<path style="fill:#020b0b; stroke:none;" d="M585 13L585 2261L648 2261C655.879 2261 668.511 2263.42 675.826 2260.4C681.776 2257.94 686.622 2248 690.373 2243C701.654 2227.96 713.062 2213.02 724.374 2198C735.281 2183.52 752.264 2167.68 759.362 2151C762.407 2143.85 760.454 2135.52 761.17 2128C763.2 2106.67 764.508 2085.29 767.282 2064C775.135 2003.72 787.268 1943.39 807.692 1886C830.531 1821.83 862.432 1762.07 909.089 1712C922.371 1697.75 938.178 1685.42 954 1674.14C960.641 1669.41 972.219 1665.34 976.914 1658.67C981.008 1652.86 982.564 1643.67 985.05 1637C990.543 1622.27 996.159 1607.6 1002 1593C1019.87 1548.32 1039.73 1504.03 1061.25 1461C1094.13 1395.23 1128.02 1330.21 1163.86 1266C1176.89 1242.66 1192.1 1220.05 1203.74 1196C1222.4 1157.46 1236.01 1116.47 1246.37 1075C1252.52 1050.42 1258.93 1023.44 1259 998C1227.2 1013.82 1201.06 1040.24 1163 1040.98C1132.86 1041.58 1109.7 1015.19 1092.08 994C1047.56 940.461 1013.18 873.603 985.424 810C979.755 797.008 974.706 778.392 966.006 767.278C963.042 763.491 957.787 763.107 954.854 758.956C950.703 753.08 952.504 745.012 948.825 739.278C944.521 732.569 923.595 728.122 916 727C916.946 724.093 919.467 719.485 918.303 716.418C917.285 713.734 913.429 713.053 911.742 710.775C907.318 704.801 909.952 694.039 917 692C917.106 683.065 920.693 677.514 918.867 668.089C917.827 662.726 911.852 660.829 909.862 655.961C904.517 642.886 921.13 644.425 928 646L931.603 625.499L949.891 614.945L963.026 572L981 525L984 526C994.281 470.824 986.458 417.54 971.576 364C961.613 328.158 946.723 294.34 943.17 257C939.077 213.995 949.594 169.099 969.258 131C1004.04 63.6106 1087.88 9.57568 1162 51.4243C1175.95 59.3013 1188.07 69.0916 1198.83 81C1234.27 120.237 1244.24 172.831 1242.99 224C1241.65 278.491 1214.93 333.742 1176 370.961C1161.8 384.536 1144.3 392.502 1129 404.424C1092.36 432.97 1059.66 463.109 1032.58 501C1025.52 510.88 1016.53 521.098 1011.16 532C1009.51 535.35 1010.78 538.483 1010.28 542C1009.2 549.651 1006.9 557.473 1005.12 565C1001.35 580.896 995.989 596.37 991.28 612C989.511 617.874 985.102 625.783 985.643 632C986.579 642.766 1002.74 647.526 1003.9 659C1006.04 680.353 1002.44 707.746 1009.69 728C1013.96 739.939 1025.29 751.365 1033.25 761C1070.3 805.833 1114.01 844.012 1155 885L1156 885C1170.27 870.423 1178.5 851.113 1187.26 833C1209.29 787.455 1223.25 738.854 1244.31 693C1251.02 678.384 1259.61 664.365 1268.52 651C1272.55 644.951 1280.49 637.518 1280.93 630C1281.93 612.587 1278.19 586.771 1273.37 570C1269.74 557.374 1262.83 545.901 1259.75 533C1257.55 523.786 1261.81 513.838 1259.68 505C1258.26 499.095 1253.57 495.537 1253.09 489C1252.27 477.871 1255.24 464.796 1264.04 457.228C1267.17 454.54 1273.3 455.053 1275.35 451.682C1280.23 443.642 1281.32 430.993 1284.33 422C1291.87 399.464 1303.91 376.734 1324 363L1324 362L1303 363C1309.31 357.625 1316.58 352.844 1325 352L1325 351L1309 346L1309 345C1323.72 343.829 1338.17 340.665 1353 340.039C1395.14 338.261 1446.87 350.836 1466.22 392C1470.34 400.761 1472.57 410.427 1473.71 420C1475.83 437.685 1470.51 453.483 1465 470C1462.87 476.385 1457.02 486.116 1457.64 492.871C1457.97 496.373 1463.19 499.897 1465 503C1500.59 484.057 1534.48 460.347 1568 438C1614.19 407.205 1660.78 375.745 1703 339.572C1735.97 311.319 1766.23 279.507 1798 249.911C1837.68 212.949 1876.32 174.873 1916 137.911C1930.94 123.996 1944.97 106.045 1962 94.7021C1978.65 83.6111 2003.68 83.7881 2022 75.6914C2053.33 61.8418 2083.84 45.9604 2115 31.6914C2128.28 25.6108 2141.94 18.0203 2156 14C2145.5 9.59277 2127.42 13 2116 13L2023 13L1701 13L585 13z"/>
<path style="fill:#f19341; stroke:none;" d="M1705 337L1705 338C1720.22 356.881 1735.09 376.035 1750.2 395C1754.76 400.718 1761.27 413.775 1768.29 416.357C1773.99 418.455 1783.16 412.245 1788 409.741C1807.09 399.863 1822.97 384.034 1838 369C1879.07 327.925 1913.53 279.211 1945.67 231C1956.05 215.429 1966.34 199.832 1976.32 184C1979.66 178.697 1983.57 168.303 1988.92 164.929C1993.12 162.289 2008.13 167.399 2014 166.83C2031.59 165.128 2050.25 160.031 2068 162.184C2082.44 163.937 2098.16 172.052 2112 176.667C2120.06 179.352 2147.97 192.69 2153.39 181.812C2157.18 174.194 2145.89 172.489 2141 170.681C2122.71 163.918 2107.47 153.167 2090 145C2091.73 141.29 2092.89 134.373 2096.42 132.028C2102.06 128.283 2115.38 131.25 2122 130.961C2141.47 130.109 2164.11 131.334 2183 126.072C2190.91 123.868 2197.38 111.855 2186.98 107.742C2180.08 105.011 2167.56 108.003 2160 108C2151.64 107.997 2143.39 107 2135 107C2122.63 107 2110.31 106.102 2098 106L2098 103C2122.63 103 2147.4 104.884 2172 105.961C2180.19 106.319 2193.75 108.292 2196.57 97.9993C2200.47 83.7139 2182.7 86.3125 2174 85.2854C2147.35 82.1396 2118.83 80.0029 2092 80C2095.39 68.6665 2103.02 65.3774 2113 59.1921C2125.26 51.5881 2137.45 43.8557 2150 36.7192C2157.08 32.6943 2172.14 28.0896 2167.14 17.1089C2162.3 6.46411 2141.62 19.2107 2135 22.2307C2103.5 36.6011 2071.98 50.7583 2041 66.2468C2024.71 74.3936 2008.47 79.9656 1991 85C1981.69 87.6836 1969.11 89.2993 1961 94.7021C1951.29 101.172 1943.49 111 1935 118.911C1915.16 137.392 1895.84 156.429 1876 174.911C1818.64 228.342 1760.45 281.589 1705 337z"/>
<path style="fill:#020b0b; stroke:none;" d="M2164 13L2164 14C2175.12 24.5972 2158.9 31.0598 2151 35.5786C2138.14 42.9341 2125.57 50.7458 2113 58.5764C2102.77 64.9512 2094.86 68.0403 2092 80C2116.33 80.0161 2140.7 83.8882 2165 84.9607C2173.93 85.355 2189.18 83.5332 2196 90L2197 90L2197 13L2164 13z"/>
<path style="fill:#41b9c6; stroke:none;" d="M984 526L981 525C960.179 564.095 953.762 609.736 939 651C949.311 657.8 961.446 665.992 974 666C980.245 635.824 993.843 606.729 1002.29 577C1005.37 566.151 1007.7 555.013 1010.11 544C1010.91 540.347 1009.59 536.166 1011.24 532.83C1023.48 508.077 1045.35 482.115 1064.09 462C1085.61 438.899 1111.36 417.555 1137 399.155C1150.05 389.79 1164.06 383.032 1176 371.911C1209.83 340.412 1231.41 297.284 1239.58 252C1255.33 164.659 1217.11 41.6392 1112 37.0393C1096.6 36.3655 1081.76 38.6094 1067 42.8604C1049.58 47.877 1033.04 57.4707 1019 68.8047C1001.58 82.8606 987.016 99.8281 975.45 119C946.05 167.734 935.86 228.199 946.804 284C949.895 299.762 956.295 313.842 961.113 329C971.153 360.589 980.076 393.284 985.565 426C991.225 459.738 988.258 492.333 984 526z"/>
<path style="fill:#fefefe; stroke:none;" d="M1091 53.4253C989.661 67.2246 938.752 189.778 959.651 281C974.562 346.084 1025.25 403.642 1097 394.714C1202.54 381.581 1247.95 248.646 1224.12 158C1208.44 98.3782 1157.07 44.4285 1091 53.4253z"/>
<path style="fill:#020b0b; stroke:none;" d="M2196 99C2188.91 108.828 2176.7 106.188 2166 105.17C2143.81 103.057 2120.29 103 2098 103L2098 106C2110.33 106.254 2122.61 107 2135 107C2143.39 107 2151.63 108 2160 108C2167.15 108 2180.74 104.962 2186.98 108.18C2198.3 114.018 2188.25 124.879 2180 126.536C2153.1 131.943 2124.79 126.501 2098.11 131.148C2092.91 132.054 2091.45 140.712 2090 145C2106.16 155.69 2122.87 164.298 2141 171.05C2145.37 172.677 2157.5 174.831 2152.87 181.9C2146.03 192.355 2118 178.333 2109 175.333C2096.39 171.131 2082.15 163.781 2069 162.184C2050.54 159.944 2031.28 165.061 2013 166.83C2006.9 167.421 1992.92 161.895 1988.38 164.788C1984.25 167.421 1981.35 174.902 1978.81 179C1971.93 190.106 1964.91 201.129 1957.67 212C1932.85 249.229 1907.61 286.224 1879.39 321C1858.1 347.243 1835.64 373.78 1809 394.789C1800.8 401.254 1792.36 407.104 1783 411.752C1778.25 414.109 1770.62 415.293 1767.09 419.303C1756.79 431.016 1749.63 447.629 1741.6 461C1725.36 488.054 1708.84 514.944 1692.6 542C1671.76 576.72 1650.64 611.274 1629.8 646C1620.3 661.841 1607.8 678.01 1600.57 695C1596.65 704.237 1607.55 725.414 1610.15 735C1619.04 767.81 1624.56 801.296 1628.72 835C1641.34 937.449 1633.1 1041.9 1620.84 1144C1602.46 1297.13 1578.88 1448.29 1532.97 1596C1515.4 1652.56 1494.94 1708.08 1472.8 1763C1456.27 1804 1438.18 1843.67 1425.03 1886C1399.5 1968.13 1378.73 2051.59 1357.87 2135C1351.81 2159.25 1345.84 2183.6 1340.42 2208C1337.39 2221.64 1335.53 2237.16 1330 2250C1312.84 2211.29 1302.73 2166.23 1293.58 2125C1276.09 2046.27 1259.91 1962.46 1274.42 1882C1278.43 1859.77 1284.93 1837.39 1296.81 1818C1301.41 1810.49 1306.64 1803.63 1312.43 1797C1315.03 1794.02 1319.32 1791.16 1319.81 1786.96C1320.96 1777.16 1317.47 1765.89 1317.04 1756C1316.01 1732.4 1315.43 1708.67 1316.01 1685C1317.68 1616.87 1326.47 1543.79 1345 1478C1318.72 1493.12 1296.03 1518.39 1274 1538.91C1218.72 1590.4 1168.11 1646.7 1117.83 1703C1014.8 1818.39 921.855 1941.13 828.116 2064C796.653 2105.24 765.577 2146.76 734.116 2188C715.734 2212.09 695.704 2235.72 679 2261L1609 2261L1609 2061L2197 2061L2197 668L2197 265L2197 149C2197 134.961 2201.41 111.884 2196 99z"/>
<path style="fill:#41b9c6; stroke:none;" d="M1704 338C1626.91 400.564 1543.61 455.232 1459 506.996C1442.8 516.909 1424.85 523.56 1408 532.259C1376.15 548.698 1345.64 568.068 1319 592.17C1288.68 619.599 1263.08 653.184 1245.26 690C1226.82 728.092 1214.85 769.089 1198.15 808C1190.42 826.017 1182.33 843.979 1172.57 861C1168.21 868.609 1158.37 877.776 1156.32 886C1152.02 903.241 1155.42 925.218 1154.99 943C1154.19 975.294 1152 1007.68 1152 1040C1190.14 1047.08 1229.89 1018.85 1259 998C1258.61 1044.88 1242.86 1096.44 1226.58 1140C1219.31 1159.42 1205.6 1180.78 1202 1201C1306.62 1221.29 1414.88 1225.41 1519 1199.37C1546.34 1192.54 1574.57 1182.98 1598 1166.97C1605.49 1161.86 1616.88 1154.47 1620.42 1145.71C1623.86 1137.19 1623.19 1125.1 1624.17 1116C1626.38 1095.33 1628.64 1074.73 1630.09 1054C1635.94 970.552 1636.96 887.061 1624.73 804C1621.05 779.021 1615.56 754.39 1609.12 730C1606.71 720.883 1599.15 707.364 1600.22 698C1600.94 691.653 1607.37 684.389 1610.6 679L1636.4 636C1668.25 582.911 1700.53 530.082 1732.4 477C1740.82 462.976 1749.27 448.948 1757.81 435C1760.54 430.541 1767.12 423.448 1766.99 418C1766.82 411.386 1756.27 402.061 1752.35 397C1742.22 383.913 1731.94 370.923 1721.6 358C1716.17 351.21 1711.1 343.106 1704 338z"/>
<path style="fill:#746859; stroke:none;" d="M1705 338L1706 339L1705 338M1706 339L1707 340L1706 339M1309 345L1309 346L1325 351L1325 352C1316.83 352.42 1308.21 356.694 1303 363L1324 362L1324 363C1299.55 374.199 1287.4 409.116 1280.58 433C1277.65 443.268 1273.81 451.717 1278 462L1279 462C1283.63 454.495 1289.65 447.787 1293.83 440C1303.04 422.814 1309.46 403.212 1325 390.464C1363.29 359.06 1440.86 364.983 1458.25 418C1467.31 445.613 1454.2 477.112 1452 505C1459.44 493.183 1462.93 477.212 1467.33 464C1471.52 451.43 1474.01 440.259 1474 427C1474 417.784 1472.47 408.779 1469.66 400C1448.35 333.508 1364.23 337.868 1309 345M1710 344L1711 345L1710 344M1714 349L1715 350L1714 349M1718 354L1719 355L1718 354M1722 359L1723 360L1722 359M1726 364L1727 365L1726 364M1730 369L1731 370L1730 369z"/>
<path style="fill:#f19341; stroke:none;" d="M1279 462L1278 462C1275.36 452.88 1267.67 451.836 1261.33 459.044C1252.25 469.374 1245.32 502.756 1266 503L1281 633C1298.56 619.571 1311.92 598.94 1329 584.286C1359.67 557.966 1395.08 539.581 1431 521.752C1440.73 516.921 1450.8 512.894 1459.98 506.996C1467.24 502.33 1462.79 496.787 1456 495L1453 505C1451.65 497.002 1454.61 487.011 1455.92 479C1459.9 454.754 1466.2 428.577 1453.12 406C1428.3 363.146 1359.39 361.429 1324 390.464C1308.97 402.794 1302.74 422.373 1293.83 439C1289.52 447.025 1282.53 453.606 1279 462z"/>
<path style="fill:#746859; stroke:none;" d="M1733 373L1734 374L1733 373M1737 378L1738 379L1737 378z"/>
<path style="fill:#020b0b; stroke:none;" d="M998.044 383.072C989.448 384.92 995.727 403.244 996.579 409C1000.07 432.597 999.49 456.501 1002.58 480C1003.28 485.357 1000.35 502.079 1009.99 500.458C1016.46 499.368 1022.3 488.657 1026.27 484C1039.56 468.421 1052.81 452.796 1066.96 438C1071.35 433.413 1083.95 424.522 1079.82 417.134C1077.08 412.236 1069.78 412.952 1065 412.271C1053.1 410.574 1040.96 407.746 1030 402.691C1022.19 399.086 1015.63 393.812 1009 388.425C1006.14 386.099 1002.13 382.193 998.044 383.072z"/>
<path style="fill:#746859; stroke:none;" d="M1741 383L1742 384L1741 383M1744 387L1745 388L1744 387M1748 392L1749 393L1748 392M1752 397L1753 398L1752 397M1755 401L1756 402L1755 401M1759 406L1760 407L1759 406M1762 410L1763 411L1762 410M1766 415L1767 416L1766 415M1260 503L1259.32 532L1273 570L1274 570L1266 503L1260 503z"/>
<path style="fill:#f19341; stroke:none;" d="M928 646C919.98 643.435 903.926 643.209 909.858 656.911C911.951 661.744 917.843 663.616 918.867 669.039C920.506 677.727 917.03 683.595 917 692C902.853 694.25 911.243 722.875 923 712L924 712C928.277 716.846 935.77 716.887 938.397 709.985C940.432 704.636 937.993 698.893 936 694C941.608 691.985 942.744 687.586 943 682C951.341 691.916 948.647 709.517 951.425 722C952.636 727.441 954.6 733.479 949 737C949.932 744.334 950.434 755.012 955.558 760.775C958.805 764.428 963.939 764.66 966.586 769.055C973.231 780.086 977.132 793.376 982.742 805C1012.34 866.338 1041.78 928.096 1082.63 983C1099.05 1005.07 1122.65 1036.03 1152 1040C1152 1001.98 1155 963.991 1155 926C1155 915.063 1159.85 894.759 1154.97 885C1151.91 878.871 1144.9 874.474 1140 869.911C1130.52 861.084 1121.16 852.16 1112 843C1077.62 808.624 1040.66 774.785 1013.67 734C998.615 711.252 1012.81 678.247 1002.99 654C999.971 646.541 990.489 637.583 984 633L974 666C960.297 665.961 949.204 655.259 937 650C945.275 644.65 947.857 627.262 950 618L931.028 625.499L928 646z"/>
<path style="fill:#020b0b; stroke:none;" d="M937 649L939 651L939 649L937 649z"/>
<path style="fill:#41b9c6; stroke:none;" d="M943 682C942.518 687.477 940.939 691.291 936 694C938.553 702.952 938.543 723.567 924 712L923 712L916 727L952 737C953.825 724.351 949.386 711.778 948.17 699C947.521 692.188 948.773 686.835 943 682z"/>
<path style="fill:#746859; stroke:none;" d="M1155 902L1155 911L1156 911L1155 902M1154 940L1154 949L1155 949L1154 940M1153 977L1153 986L1154 986L1153 977M1152 1015L1152 1023L1153 1023L1152 1015z"/>
<path style="fill:#f19341; stroke:none;" d="M1619 1147C1592.96 1178.98 1548.48 1191.8 1510 1201.37C1455.29 1214.98 1398.01 1218.39 1342 1217.01C1296.13 1215.89 1248.67 1212.56 1204 1201L1204 1202C1298.02 1257.45 1420.11 1274.79 1527 1257.08C1547.67 1253.66 1568.9 1248.44 1588 1239.69C1593.86 1237.01 1603.28 1233.94 1607.26 1228.67C1610.07 1224.95 1610.01 1218.46 1610.75 1214C1612.64 1202.7 1614.44 1191.35 1616 1180C1617.23 1171.05 1622.49 1155.4 1619 1147z"/>
<path style="fill:#746859; stroke:none;" d="M1201 1200C1181.13 1242.51 1153.71 1282.67 1131.31 1324C1078.57 1421.28 1026.02 1521.58 988.692 1626C984.893 1636.63 980.497 1647.12 977.428 1658C965.895 1698.88 971.183 1774.16 1027 1777.91C1052.65 1779.64 1066.83 1762.58 1082 1745C1095.01 1729.93 1108.16 1714.97 1121.28 1700C1190.52 1621.07 1263.13 1543.99 1345 1478C1334.13 1506.8 1331.11 1541.63 1326.73 1572C1319.88 1619.51 1316 1667.02 1316 1715C1316 1738.63 1315.52 1763.72 1320.04 1787C1321.72 1795.61 1328.39 1804.48 1334 1811C1358.92 1839.94 1404.47 1845.86 1436 1823.79C1454.56 1810.8 1461.03 1792.02 1469.42 1772C1482.16 1741.66 1493.75 1710.89 1505.05 1680C1541.3 1580.9 1569.69 1477.87 1588.42 1374C1596.93 1326.86 1607.97 1277.04 1608 1229C1594.65 1235.24 1582.16 1242.47 1568 1246.97C1473.29 1277.1 1362.37 1265.18 1270 1232.31C1245.74 1223.67 1224.16 1210.81 1201 1200z"/>
<path style="fill:#f19341; stroke:none;" d="M761 2153L762 2153C783.598 2117.25 810.589 2084.38 835.627 2051C884.474 1985.87 934.824 1921.96 986.424 1859C1010.8 1829.26 1039.33 1800.69 1061 1769C1049.58 1772.29 1039.5 1778.98 1027 1777.83C970.262 1772.61 968.985 1701.33 977 1660C941.254 1673.01 908.64 1709.16 885.6 1738C819.239 1821.08 787.633 1929.46 771.576 2033C767.11 2061.79 763.246 2090.91 761.961 2120C761.499 2130.44 758.771 2142.75 761 2153M1330 2250C1337.61 2237.53 1338.33 2217.19 1341.87 2203C1350.93 2166.73 1359.3 2130.28 1368.37 2094C1384.62 2029.03 1401.15 1963.98 1421.03 1900C1426.84 1881.28 1432.56 1862.36 1439.42 1844C1443.72 1832.52 1450.86 1819.99 1453 1808C1443.45 1815.3 1436.39 1824.5 1425 1829.56C1381.9 1848.69 1343.38 1828.3 1321 1790C1311.23 1793.32 1304.06 1805.66 1298.69 1814C1282.08 1839.79 1275.61 1870.01 1271.72 1900C1260.65 1985.24 1279.62 2076.83 1301.85 2159C1307.11 2178.44 1312.92 2197.67 1318.58 2217C1321.64 2227.45 1324.19 2240.77 1330 2250M1455 1803L1456 1804L1455 1803M1454 1805L1455 1806L1454 1805M1453.33 1806.67L1453.67 1807.33L1453.33 1806.67z"/>
<path style="fill:#fefefe; stroke:none;" d="M948 1905L949 1906L948 1905M947 1906L948 1907L947 1906M946 1907L947 1908L946 1907M945 1908L946 1909L945 1908M944 1910L945 1911L944 1910M943 1911L944 1912L943 1911M942 1912L943 1913L942 1912M941.333 1913.67L941.667 1914.33L941.333 1913.67M940 1915L941 1916L940 1915M939 1916L940 1917L939 1916M938 1917L937 1920L938 1917M936 1920L937 1921L936 1920M935 1921L933 1925L935 1921M932 1925L834.576 2052L796.127 2103L776 2132C791.727 2119.94 803.961 2096.88 815.873 2081C841.958 2046.22 868.116 2011.44 894.651 1977C903.848 1965.06 912.691 1952.85 922 1941C925.258 1936.85 932.276 1930.45 932 1925z"/>
<path style="fill:#020b0b; stroke:none;" d="M891 1977L892 1978L891 1977M888 1981L889 1982L888 1981M884 1986L885 1987L884 1986M881 1990L882 1991L881 1990M878 1994L879 1995L878 1994M875 1998L876 1999L875 1998M874 1999L875 2000L874 1999M872 2002L873 2003L872 2002M871 2003L872 2004L871 2003M869 2006L870 2007L869 2006M868 2007L869 2008L868 2007M865 2011L866 2012L865 2011M864 2012L865 2013L864 2012M862 2015L863 2016L862 2015M861 2016L862 2017L861 2016M859 2019L860 2020L859 2019M858 2020L859 2021L858 2020M856 2023L857 2024L856 2023M855 2024L856 2025L855 2024M854 2025L855 2026L854 2025M853 2027L854 2028L853 2027M852 2028L853 2029L852 2028M851 2029L852 2030L851 2029M849 2032L850 2033L849 2032M848 2033L849 2034L848 2033M846 2036L847 2037L846 2036M845 2037L846 2038L845 2037M843 2040L844 2041L843 2040M842 2041L843 2042L842 2041M840 2044L841 2045L840 2044M839 2045L840 2046L839 2045M837 2048L838 2049L837 2048M836 2049L837 2050L836 2049M834 2052L835 2053L834 2052M833 2053L834 2054L833 2053M830 2057L831 2058L830 2057M827 2061L828 2062L827 2061M824 2065L825 2066L824 2065M821 2069L822 2070L821 2069M818 2073L819 2074L818 2073M815 2077L816 2078L815 2077z"/>
<path style="fill:#fefefe; stroke:none;" d="M775 2132L774 2135L775 2132M773 2135L774 2136L773 2135M772 2136L771 2139L772 2136M770 2139L771 2140L770 2139M769.333 2140.67L769.667 2141.33L769.333 2140.67M768 2142L769 2143L768 2142M766 2145L767 2146L766 2145M759 2151L698.627 2231L677 2261C686.613 2256.42 693.583 2242.38 699.873 2234C714.187 2214.92 728.816 2196.08 743.127 2177C748.943 2169.24 758.538 2160.47 761 2151L759 2151z"/>
</svg>
